<?xml version="1.0" encoding="utf-8"?>
<svg xmlns="http://www.w3.org/2000/svg" viewBox="194.6283 157.1231 119.4449 138.749" width="128px" height="128px" preserveAspectRatio="none"><g transform="matrix(1, 0, 0, 1, -4.53678430726481, -12.195881253358145)" id="object-0"><path d="M 199.275 169.576 C 199.002 169.903 199.242 172.114 199.945 175.746 C 201.211 182.291 201.789 187.738 202.16 196.64 C 202.747 210.703 203.883 218.326 206.794 227.738 C 207.976 231.559 210.044 236.558 212.28 240.997 C 216.07 248.524 219.452 253.226 224.843 258.464 C 228.531 262.048 231.512 264.345 235.499 266.678 C 244.187 271.76 252.936 274.449 265.448 275.883 C 274.101 276.874 277.099 277.416 280.013 278.516 C 282.896 279.605 284.422 280.957 293.172 290.172 C 297.213 294.429 301.26 298.074 307.583 303.153 C 311.325 306.158 313.874 308.068 314.144 308.068 C 314.39 308.068 318.611 304.271 318.61 304.051 C 318.609 303.952 318.406 303.749 318.157 303.599 C 317.398 303.142 316.004 302.139 313.588 300.314 C 308.256 296.286 304.424 293.017 300.645 289.272 C 293.111 281.807 289.972 276.266 289.972 270.431 C 289.972 268.571 290.201 266.609 290.971 261.865 C 291.783 256.866 292.058 254.849 292.27 252.354 C 293.137 242.143 290.694 231.316 285.454 222.152 C 281.308 214.901 275.456 207.911 268.576 201.994 C 263.903 197.976 256.164 192.739 249.982 189.413 C 243.132 185.727 237.127 183.294 228.004 180.508 C 217.941 177.433 213.239 175.623 205.537 171.855 C 202.686 170.46 200.158 169.319 199.92 169.319 C 199.682 169.319 199.392 169.434 199.275 169.576 M 201.587 172.578 C 201.587 172.69 201.804 174.021 202.07 175.536 C 202.871 180.103 203.451 184.538 203.644 187.588 C 203.699 188.448 203.774 189.448 203.811 189.81 C 203.848 190.172 203.956 192.135 204.051 194.172 C 204.574 205.297 204.758 207.816 205.387 212.441 C 206.764 222.552 209.646 231.727 214.277 240.739 C 217.682 247.364 221.143 252.212 225.647 256.663 C 232.452 263.39 239.382 267.493 249.476 270.774 C 255.485 272.727 259.565 273.475 270.221 274.581 C 271.839 274.748 276.782 275.649 278.614 276.109 C 279.596 276.356 280.367 276.505 280.327 276.44 C 280.288 276.376 279.601 275.949 278.802 275.491 C 275.705 273.719 271.437 272.147 264.625 270.27 C 255.844 267.85 249.717 265.859 245.455 264.038 C 239.22 261.375 234.018 258.363 229.814 254.981 C 227.017 252.731 222.467 247.632 222.884 247.215 C 222.934 247.165 224.439 248.563 226.23 250.321 C 230.545 254.557 233.159 256.57 237.502 258.999 C 244.887 263.128 251.93 265.762 264.625 269.14 C 271.016 270.84 274.58 272.059 277.657 273.599 C 281.837 275.689 284.965 278.204 288.084 281.98 C 290.756 285.216 296.087 291.097 298.39 293.348 C 301.746 296.63 306.647 300.805 311.586 304.589 L 314.025 306.458 L 314.425 306.082 C 314.645 305.876 314.821 305.627 314.816 305.529 C 314.81 305.432 313.162 304.039 311.153 302.434 C 303.398 296.238 295.912 289.38 292.596 285.436 C 291.912 284.622 290.579 282.995 289.633 281.82 C 286.585 278.032 285.964 277.449 280.989 273.711 C 273.215 267.87 267.456 264.972 252.61 259.428 C 245.773 256.876 242.406 255.332 237.843 252.66 C 230.389 248.294 224.489 243.508 219.355 237.664 C 216.003 233.849 212.916 229.009 211.239 224.941 C 210.604 223.401 209.954 221.164 210.141 221.164 C 210.421 221.164 210.869 221.907 211.965 224.193 C 215.593 231.755 220.071 237.366 227.757 243.981 C 230.091 245.99 231.699 247.183 234.783 249.198 C 240.898 253.192 245.476 255.429 252.528 257.869 C 260.309 260.562 269.207 264.544 274.501 267.702 C 276.228 268.732 281.315 272.215 283.058 273.562 C 283.371 273.803 282.331 272.53 279.917 269.719 C 277.617 267.041 273.166 262.681 270.748 260.739 C 267.287 257.958 262.849 255.284 253.351 250.258 C 243.658 245.128 236.328 240.814 232.234 237.832 C 225.902 233.218 220.12 227.462 216.172 221.839 C 211.654 215.404 208.524 207.969 207.271 200.692 C 207.006 199.156 206.933 196.914 207.179 197.875 C 207.761 200.15 209.726 206.1 210.824 208.913 C 213.806 216.556 217.566 222.27 223.798 228.629 C 231.061 236.041 235.98 239.351 253.845 248.855 C 265.425 255.015 266.528 255.69 270.798 259.236 C 272.155 260.364 273.289 261.266 273.317 261.241 C 273.345 261.216 272.933 260.613 272.401 259.902 C 271.87 259.191 271.186 258.238 270.881 257.786 C 269.752 256.109 266.579 251.936 264.863 249.874 C 258.864 242.663 256.159 240.25 247.426 234.324 C 234.371 225.465 227.269 219.31 220.75 211.207 C 216.097 205.423 211.771 197.99 208.25 189.728 C 207.283 187.459 205.698 183.118 205.707 182.764 C 205.71 182.656 207.063 185.271 208.714 188.575 C 212.21 195.572 214.577 199.815 217.114 203.635 C 223.299 212.947 230.108 219.909 241.089 228.153 C 244.057 230.381 248.567 233.606 250.882 235.156 C 251.606 235.641 252.921 236.578 253.804 237.238 C 255.326 238.377 255.904 238.641 254.986 237.778 C 254.754 237.56 252.995 235.351 251.077 232.869 C 249.159 230.387 246.223 226.645 244.553 224.554 C 242.883 222.463 239.853 218.642 237.821 216.062 C 232.353 209.122 227.555 203.369 220.924 195.801 C 212.268 185.922 208.595 181.51 205.51 177.28 C 204.643 176.09 203.507 174.609 202.987 173.988 C 201.685 172.433 201.587 172.334 201.587 172.578 M 203.172 173.083 C 204.092 174.509 207.332 178.455 209.743 181.087 C 212.559 184.161 214.514 186.346 218.053 190.373 C 219.996 192.584 222.215 195.108 222.984 195.982 C 223.753 196.855 225.422 198.75 226.691 200.191 C 228.748 202.528 231.151 205.338 233.365 207.998 C 234.159 208.953 237.74 213.4 243.965 221.164 C 247.729 225.859 251.428 230.336 254.096 233.426 C 254.877 234.332 255.64 235.255 255.792 235.479 C 256.093 235.925 256.159 235.72 255.908 235.121 C 255.821 234.913 255.408 233.78 254.991 232.603 C 250.856 220.933 245.449 211.322 238.14 202.648 C 232.337 195.76 224.013 188.052 214.102 180.388 C 213.253 179.731 212.613 179.194 212.679 179.194 C 212.964 179.194 216.667 181.578 219.423 183.536 C 223.448 186.395 225.959 188.444 230.555 192.624 C 235.707 197.308 240.373 202.754 244.649 209.072 C 249.161 215.739 251.896 221.065 255.93 231.04 C 257.01 233.71 258.305 236.636 258.807 237.541 C 260.679 240.918 263.994 245.53 269.574 252.519 C 272.384 256.04 273.206 256.967 272.98 256.364 C 272.925 256.216 272.496 254.845 272.028 253.319 C 270.395 247.991 267.273 238.191 266.862 237.101 C 266.635 236.497 265.923 234.201 265.282 231.999 C 262.956 224.009 261.306 219.79 258.791 215.404 C 253.199 205.65 245.762 197.622 234.917 189.634 C 233.121 188.311 228.089 184.99 226.73 184.231 C 225.08 183.309 225.232 183.233 227.095 184.048 C 232.053 186.216 239.286 191.096 244.625 195.876 C 252.817 203.209 258.201 210.137 262.167 218.449 C 264.316 222.952 265.746 226.998 268.739 237.047 C 269.656 240.125 271.037 244.754 271.807 247.334 C 274.675 256.934 275.473 258.891 278.163 262.919 C 279.76 265.309 281.401 267.482 281.521 267.362 C 281.557 267.325 281.509 267.088 281.412 266.835 C 281.218 266.323 280.622 263.859 280.009 261.033 C 279.527 258.806 278.793 254.563 278.209 250.626 C 275.657 233.403 273.031 224.001 268.573 216.117 C 265.227 210.201 260.307 204.255 254.631 199.27 C 252.349 197.265 247.085 193.255 244.628 191.65 C 242.677 190.376 242.035 189.875 243.064 190.431 C 245.645 191.826 246.242 192.153 247.426 192.826 C 249.456 193.98 253.319 196.623 255.326 198.23 C 258.841 201.045 263.156 205.53 266.04 209.367 C 269.71 214.25 273.305 221.582 275.134 227.913 C 276.849 233.85 277.78 238.594 279.268 248.98 C 280.717 259.09 281.979 265.416 283.301 269.194 C 284.198 271.76 285.33 274.239 285.804 274.677 C 286.191 275.034 286.219 275.039 286.129 274.739 C 285.833 273.751 285.525 271.817 285.303 269.554 C 284.896 265.412 284.859 264.512 284.614 252.437 C 284.462 244.992 283.967 240.329 282.726 234.671 C 280.854 226.129 277.208 218.416 271.421 210.754 C 270.755 209.871 270.275 209.149 270.356 209.149 C 270.566 209.149 273.274 211.988 274.361 213.346 C 278.863 218.978 282.321 226.636 284.044 234.793 C 285.368 241.057 285.661 244.464 285.86 255.893 C 286.1 269.692 286.349 271.898 288.185 276.521 C 289.615 280.119 290.753 281.833 294.93 286.671 C 298.722 291.065 304.581 296.537 310.628 301.333 C 314.872 304.698 315.188 304.941 315.321 304.941 C 315.542 304.941 315.852 304.456 315.768 304.239 C 315.724 304.122 314.327 302.996 312.664 301.737 C 306.38 296.977 302.743 293.841 298.604 289.614 C 292.059 282.927 289.065 277.63 288.512 271.754 C 288.246 268.927 288.501 266.084 289.894 256.304 C 290.942 248.947 290.802 243.937 289.378 237.8 C 287.204 228.435 283.044 220.442 276.222 212.523 C 273.956 209.894 269.469 205.468 266.93 203.36 C 258.665 196.496 247.002 189.513 237.573 185.781 C 236.474 185.346 233.353 184.27 230.637 183.39 C 227.922 182.51 224.03 181.249 221.99 180.589 C 215.114 178.365 210.411 176.484 205.632 174.046 C 203.274 172.845 202.931 172.711 203.172 173.083" stroke="none" fill="#082905" fill-rule="evenodd" style="stroke-width: 1;"/><path d="M 201.587 172.578 C 201.587 172.69 201.804 174.021 202.07 175.536 C 202.871 180.103 203.451 184.538 203.644 187.588 C 203.699 188.448 203.774 189.448 203.811 189.81 C 203.848 190.172 203.956 192.135 204.051 194.172 C 204.574 205.297 204.758 207.816 205.387 212.441 C 206.764 222.552 209.646 231.727 214.277 240.739 C 217.682 247.364 221.143 252.212 225.647 256.663 C 232.452 263.39 239.382 267.493 249.476 270.774 C 255.485 272.727 259.565 273.475 270.221 274.581 C 271.839 274.748 276.782 275.649 278.614 276.109 C 279.596 276.356 280.367 276.505 280.327 276.44 C 280.288 276.376 279.601 275.949 278.802 275.491 C 275.705 273.719 271.437 272.147 264.625 270.27 C 255.844 267.85 249.717 265.859 245.455 264.038 C 239.22 261.375 234.018 258.363 229.814 254.981 C 227.017 252.731 222.467 247.632 222.884 247.215 C 222.934 247.165 224.439 248.563 226.23 250.321 C 230.545 254.557 233.159 256.57 237.502 258.999 C 244.887 263.128 251.93 265.762 264.625 269.14 C 271.016 270.84 274.58 272.059 277.657 273.599 C 281.837 275.689 284.965 278.204 288.084 281.98 C 290.756 285.216 296.087 291.097 298.39 293.348 C 301.746 296.63 306.647 300.805 311.586 304.589 L 314.025 306.458 L 314.425 306.082 C 314.645 305.876 314.821 305.627 314.816 305.529 C 314.81 305.432 313.162 304.039 311.153 302.434 C 303.398 296.238 295.912 289.38 292.596 285.436 C 291.912 284.622 290.579 282.995 289.633 281.82 C 286.585 278.032 285.964 277.449 280.989 273.711 C 273.215 267.87 267.456 264.972 252.61 259.428 C 245.773 256.876 242.406 255.332 237.843 252.66 C 230.389 248.294 224.489 243.508 219.355 237.664 C 216.003 233.849 212.916 229.009 211.239 224.941 C 210.604 223.401 209.954 221.164 210.141 221.164 C 210.421 221.164 210.869 221.907 211.965 224.193 C 215.593 231.755 220.071 237.366 227.757 243.981 C 230.091 245.99 231.699 247.183 234.783 249.198 C 240.898 253.192 245.476 255.429 252.528 257.869 C 260.309 260.562 269.207 264.544 274.501 267.702 C 276.228 268.732 281.315 272.215 283.058 273.562 C 283.371 273.803 282.331 272.53 279.917 269.719 C 277.617 267.041 273.166 262.681 270.748 260.739 C 267.287 257.958 262.849 255.284 253.351 250.258 C 243.658 245.128 236.328 240.814 232.234 237.832 C 225.902 233.218 220.12 227.462 216.172 221.839 C 211.654 215.404 208.524 207.969 207.271 200.692 C 207.006 199.156 206.933 196.914 207.179 197.875 C 207.761 200.15 209.726 206.1 210.824 208.913 C 213.806 216.556 217.566 222.27 223.798 228.629 C 231.061 236.041 235.98 239.351 253.845 248.855 C 265.425 255.015 266.528 255.69 270.798 259.236 C 272.155 260.364 273.289 261.266 273.317 261.241 C 273.345 261.216 272.933 260.613 272.401 259.902 C 271.87 259.191 271.186 258.238 270.881 257.786 C 269.752 256.109 266.579 251.936 264.863 249.874 C 258.864 242.663 256.159 240.25 247.426 234.324 C 234.371 225.465 227.269 219.31 220.75 211.207 C 216.097 205.423 211.771 197.99 208.25 189.728 C 207.283 187.459 205.698 183.118 205.707 182.764 C 205.71 182.656 207.063 185.271 208.714 188.575 C 212.21 195.572 214.577 199.815 217.114 203.635 C 223.299 212.947 230.108 219.909 241.089 228.153 C 244.057 230.381 248.567 233.606 250.882 235.156 C 251.606 235.641 252.921 236.578 253.804 237.238 C 255.326 238.377 255.904 238.641 254.986 237.778 C 254.754 237.56 252.995 235.351 251.077 232.869 C 249.159 230.387 246.223 226.645 244.553 224.554 C 242.883 222.463 239.853 218.642 237.821 216.062 C 232.353 209.122 227.555 203.369 220.924 195.801 C 212.268 185.922 208.595 181.51 205.51 177.28 C 204.643 176.09 203.507 174.609 202.987 173.988 C 201.685 172.433 201.587 172.334 201.587 172.578 M 203.172 173.083 C 204.092 174.509 207.332 178.455 209.743 181.087 C 212.559 184.161 214.514 186.346 218.053 190.373 C 219.996 192.584 222.215 195.108 222.984 195.982 C 223.753 196.855 225.422 198.75 226.691 200.191 C 228.748 202.528 231.151 205.338 233.365 207.998 C 234.159 208.953 237.74 213.4 243.965 221.164 C 247.729 225.859 251.428 230.336 254.096 233.426 C 254.877 234.332 255.64 235.255 255.792 235.479 C 256.093 235.925 256.159 235.72 255.908 235.121 C 255.821 234.913 255.408 233.78 254.991 232.603 C 250.856 220.933 245.449 211.322 238.14 202.648 C 232.337 195.76 224.013 188.052 214.102 180.388 C 213.253 179.731 212.613 179.194 212.679 179.194 C 212.964 179.194 216.667 181.578 219.423 183.536 C 223.448 186.395 225.959 188.444 230.555 192.624 C 235.707 197.308 240.373 202.754 244.649 209.072 C 249.161 215.739 251.896 221.065 255.93 231.04 C 257.01 233.71 258.305 236.636 258.807 237.541 C 260.679 240.918 263.994 245.53 269.574 252.519 C 272.384 256.04 273.206 256.967 272.98 256.364 C 272.925 256.216 272.496 254.845 272.028 253.319 C 270.395 247.991 267.273 238.191 266.862 237.101 C 266.635 236.497 265.923 234.201 265.282 231.999 C 262.956 224.009 261.306 219.79 258.791 215.404 C 253.199 205.65 245.762 197.622 234.917 189.634 C 233.121 188.311 228.089 184.99 226.73 184.231 C 225.08 183.309 225.232 183.233 227.095 184.048 C 232.053 186.216 239.286 191.096 244.625 195.876 C 252.817 203.209 258.201 210.137 262.167 218.449 C 264.316 222.952 265.746 226.998 268.739 237.047 C 269.656 240.125 271.037 244.754 271.807 247.334 C 274.675 256.934 275.473 258.891 278.163 262.919 C 279.76 265.309 281.401 267.482 281.521 267.362 C 281.557 267.325 281.509 267.088 281.412 266.835 C 281.218 266.323 280.622 263.859 280.009 261.033 C 279.527 258.806 278.793 254.563 278.209 250.626 C 275.657 233.403 273.031 224.001 268.573 216.117 C 265.227 210.201 260.307 204.255 254.631 199.27 C 252.349 197.265 247.085 193.255 244.628 191.65 C 242.677 190.376 242.035 189.875 243.064 190.431 C 245.645 191.826 246.242 192.153 247.426 192.826 C 249.456 193.98 253.319 196.623 255.326 198.23 C 258.841 201.045 263.156 205.53 266.04 209.367 C 269.71 214.25 273.305 221.582 275.134 227.913 C 276.849 233.85 277.78 238.594 279.268 248.98 C 280.717 259.09 281.979 265.416 283.301 269.194 C 284.198 271.76 285.33 274.239 285.804 274.677 C 286.191 275.034 286.219 275.039 286.129 274.739 C 285.833 273.751 285.525 271.817 285.303 269.554 C 284.896 265.412 284.859 264.512 284.614 252.437 C 284.462 244.992 283.967 240.329 282.726 234.671 C 280.854 226.129 277.208 218.416 271.421 210.754 C 270.755 209.871 270.275 209.149 270.356 209.149 C 270.566 209.149 273.274 211.988 274.361 213.346 C 278.863 218.978 282.321 226.636 284.044 234.793 C 285.368 241.057 285.661 244.464 285.86 255.893 C 286.1 269.692 286.349 271.898 288.185 276.521 C 289.615 280.119 290.753 281.833 294.93 286.671 C 298.722 291.065 304.581 296.537 310.628 301.333 C 314.872 304.698 315.188 304.941 315.321 304.941 C 315.542 304.941 315.852 304.456 315.768 304.239 C 315.724 304.122 314.327 302.996 312.664 301.737 C 306.38 296.977 302.743 293.841 298.604 289.614 C 292.059 282.927 289.065 277.63 288.512 271.754 C 288.246 268.927 288.501 266.084 289.894 256.304 C 290.942 248.947 290.802 243.937 289.378 237.8 C 287.204 228.435 283.044 220.442 276.222 212.523 C 273.956 209.894 269.469 205.468 266.93 203.36 C 258.665 196.496 247.002 189.513 237.573 185.781 C 236.474 185.346 233.353 184.27 230.637 183.39 C 227.922 182.51 224.03 181.249 221.99 180.589 C 215.114 178.365 210.411 176.484 205.632 174.046 C 203.274 172.845 202.931 172.711 203.172 173.083 M 224.301 258.115 C 225.066 258.884 225.73 259.514 225.775 259.514 C 225.82 259.514 225.231 258.884 224.465 258.115 C 223.7 257.345 223.036 256.716 222.991 256.716 C 222.946 256.716 223.535 257.345 224.301 258.115 M 300.095 288.811 C 300.906 289.626 301.606 290.292 301.651 290.292 C 301.697 290.292 301.07 289.626 300.259 288.811 C 299.448 287.996 298.748 287.33 298.702 287.33 C 298.657 287.33 299.284 287.996 300.095 288.811" stroke="none" fill="#518923" fill-rule="evenodd" style="stroke-width: 1;"/></g></svg>