<svg width="24" height="24" viewBox="0 0 24 24" fill="none" xmlns="http://www.w3.org/2000/svg">
  <path
    d="M11.9993 3.72974C14.0085 3.72974 15.8479 4.4683 17.2683 5.69261L17.4468 5.84876L17.6445 6.02617L17.856 6.22023L18.1991 6.54251L18.5732 6.90223L18.9783 7.29938L19.2656 7.58496L19.8815 8.20602L20.3796 8.7155L21.092 9.45303L21.8595 10.2571L22.2639 10.6841C22.942 11.4018 22.9666 12.4913 22.3374 13.2359L22.2648 13.3172L21.4735 14.1516L20.9116 14.7383L20.2105 15.4621L19.7207 15.9611L19.1159 16.5679L18.8341 16.8462L18.4372 17.2323L18.0713 17.5808L17.7362 17.8916L17.5301 18.078L17.3377 18.2476C17.3068 18.2745 17.2764 18.3007 17.2467 18.3261C15.8292 19.5393 13.9984 20.2704 11.9993 20.2704C9.9883 20.2704 8.1475 19.5306 6.72657 18.3043L6.54827 18.1482L6.35083 17.9709L6.02885 17.6737L5.67588 17.3392L5.2919 16.9673L4.87694 16.558L4.27543 15.9542L3.61883 15.2838L2.90712 14.5471L1.93999 13.5327C1.87265 13.4616 1.80473 13.3898 1.73624 13.3173C1.05762 12.5993 1.0334 11.5088 1.66357 10.7642L1.73628 10.6829L2.71408 9.65463L3.16379 9.18649L3.79984 8.53072L4.19819 8.1245L4.57601 7.74304L5.03159 7.28898L5.48986 6.84033L5.77293 6.5683L6.16385 6.20085L6.40202 5.98295L6.62222 5.78671C6.65743 5.75581 6.69188 5.7258 6.72559 5.69671C8.14666 4.46994 9.98784 3.72974 11.9993 3.72974ZM11.9993 5.18921C10.4123 5.18921 8.91264 5.75981 7.7211 6.78842L7.45799 7.02058L7.26098 7.19983L6.93878 7.5005L6.45954 7.96058L6.06305 8.34991L5.63493 8.77706L5.17529 9.24194L4.68427 9.74444L4.16198 10.2845L3.41717 11.0627L2.8404 11.6708C2.66445 11.857 2.66445 12.1433 2.84039 12.3294L3.60043 13.1299L4.50573 14.0719L5.00736 14.5872L5.62747 15.2158L6.05587 15.6433L6.32393 15.9073L6.69963 16.2719L6.93246 16.4938L7.25516 16.7951L7.54589 17.0582L7.7219 17.2124C8.91332 18.2406 10.4126 18.811 11.9993 18.811C13.5766 18.811 15.0676 18.2474 16.2559 17.2303L16.4271 17.0815L16.6182 16.9108L16.8236 16.7229L17.0433 16.5178L17.2771 16.2958L17.5252 16.0567L17.9237 15.6661L18.5043 15.0861L18.9766 14.6067L19.4801 14.0894L20.2002 13.3409L20.5809 12.9415L21.1599 12.3301C21.3355 12.144 21.3354 11.8579 21.1596 11.6719L20.2169 10.68L19.3266 9.75627L18.677 9.09251L18.2265 8.63873L17.8076 8.22279L17.4204 7.84481L17.1799 7.61394L16.9536 7.40002L16.6408 7.11095L16.45 6.93949L16.2736 6.78507C15.0827 5.75854 13.5846 5.18921 11.9993 5.18921ZM12 7.50078C14.4181 7.50078 16.3784 9.5155 16.3784 12.0008C16.3784 14.4861 14.4181 16.5008 12 16.5008C9.58186 16.5008 7.62157 14.4861 7.62157 12.0008C7.62157 9.5155 9.58186 7.50078 12 7.50078ZM12.0483 9.0001V10.8001L12.0453 10.8901C12.0003 11.4891 11.5208 11.958 10.9296 11.9974L10.8483 12.0001H9.04839L9.05139 12.1303C9.12108 13.7351 10.4424 15.0002 12.0486 15.0001C13.7055 15 15.0485 13.6568 15.0484 11.9999C15.0483 10.3431 13.7051 9 12.0483 9.0001Z"
    fill="#8c8c8c" />
</svg>
