<svg width="256" height="256" viewBox="0 0 256 256" fill="none" xmlns="http://www.w3.org/2000/svg">
  <rect width="256" height="256" rx="20" fill="url(#paint0_linear_179525_1180)" />
  <g style="mix-blend-mode:darken" filter="url(#filter0_d_179525_1180)">
    <path
      d="M148 30C150.209 30 152 31.7909 152 34V104H222C224.209 104 226 105.791 226 108V148C226 150.209 224.209 152 222 152H152V222C152 224.209 150.209 226 148 226H108C105.791 226 104 224.209 104 222V152H34C31.7909 152 30 150.209 30 148V108C30 105.791 31.7909 104 34 104H104V34C104 31.7909 105.791 30 108 30H148Z"
      fill="url(#paint1_linear_179525_1180)" />
    <path
      d="M152 104H151.5V104.5H152V104ZM226 108H226.5H226ZM152 152V151.5H151.5V152H152ZM148 226V226.5V226ZM104 152H104.5V151.5H104V152ZM30 148H29.5H30ZM104 104V104.5H104.5V104H104ZM108 30V29.5V30ZM148 30V30.5C149.933 30.5 151.5 32.067 151.5 34H152H152.5C152.5 31.5147 150.485 29.5 148 29.5V30ZM152 34H151.5V104H152H152.5V34H152ZM152 104V104.5H222V104V103.5H152V104ZM222 104V104.5C223.933 104.5 225.5 106.067 225.5 108H226H226.5C226.5 105.515 224.485 103.5 222 103.5V104ZM226 108H225.5V148H226H226.5V108H226ZM226 148H225.5C225.5 149.933 223.933 151.5 222 151.5V152V152.5C224.485 152.5 226.5 150.485 226.5 148H226ZM222 152V151.5H152V152V152.5H222V152ZM152 152H151.5V222H152H152.5V152H152ZM152 222H151.5C151.5 223.933 149.933 225.5 148 225.5V226V226.5C150.485 226.5 152.5 224.485 152.5 222H152ZM148 226V225.5H108V226V226.5H148V226ZM108 226V225.5C106.067 225.5 104.5 223.933 104.5 222H104H103.5C103.5 224.485 105.515 226.5 108 226.5V226ZM104 222H104.5V152H104H103.5V222H104ZM104 152V151.5H34V152V152.5H104V152ZM34 152V151.5C32.067 151.5 30.5 149.933 30.5 148H30H29.5C29.5 150.485 31.5147 152.5 34 152.5V152ZM30 148H30.5V108H30H29.5V148H30ZM30 108H30.5C30.5 106.067 32.067 104.5 34 104.5V104V103.5C31.5147 103.5 29.5 105.515 29.5 108H30ZM34 104V104.5H104V104V103.5H34V104ZM104 104H104.5V34H104H103.5V104H104ZM104 34H104.5C104.5 32.067 106.067 30.5 108 30.5V30V29.5C105.515 29.5 103.5 31.5147 103.5 34H104ZM108 30V30.5H148V30V29.5H108V30Z"
      fill="#096DD9" />
  </g>
  <g filter="url(#filter1_d_179525_1180)">
    <path
      d="M218 176.5C218 199.42 199.42 218 176.5 218C153.58 218 135 199.42 135 176.5C135 153.58 153.58 135 176.5 135C199.42 135 218 153.58 218 176.5Z"
      fill="white" />
    <path
      d="M238.167 129.284C241.291 132.408 241.291 137.474 238.167 140.598L181.598 197.167C178.572 200.193 173.724 200.287 170.583 197.45C170.482 197.359 170.382 197.264 170.284 197.167L147.657 174.539C144.533 171.415 144.533 166.35 147.657 163.225C150.781 160.101 155.846 160.101 158.971 163.225L175.941 180.196L226.853 129.284C229.977 126.16 235.042 126.16 238.167 129.284Z"
      fill="#73D13D" />
  </g>
  <defs>
    <filter id="filter0_d_179525_1180" x="29.5" y="29.5" width="205" height="206"
      filterUnits="userSpaceOnUse" color-interpolation-filters="sRGB">
      <feFlood flood-opacity="0" result="BackgroundImageFix" />
      <feColorMatrix in="SourceAlpha" type="matrix"
        values="0 0 0 0 0 0 0 0 0 0 0 0 0 0 0 0 0 0 127 0" result="hardAlpha" />
      <feOffset dx="4" dy="5" />
      <feGaussianBlur stdDeviation="2" />
      <feComposite in2="hardAlpha" operator="out" />
      <feColorMatrix type="matrix" values="0 0 0 0 0 0 0 0 0 0 0 0 0 0 0 0 0 0 0.25 0" />
      <feBlend mode="normal" in2="BackgroundImageFix" result="effect1_dropShadow_179525_1180" />
      <feBlend mode="normal" in="SourceGraphic" in2="effect1_dropShadow_179525_1180" result="shape" />
    </filter>
    <filter id="filter1_d_179525_1180" x="135" y="126.941" width="114.51" height="99.0589"
      filterUnits="userSpaceOnUse" color-interpolation-filters="sRGB">
      <feFlood flood-opacity="0" result="BackgroundImageFix" />
      <feColorMatrix in="SourceAlpha" type="matrix"
        values="0 0 0 0 0 0 0 0 0 0 0 0 0 0 0 0 0 0 127 0" result="hardAlpha" />
      <feOffset dx="5" dy="4" />
      <feGaussianBlur stdDeviation="2" />
      <feComposite in2="hardAlpha" operator="out" />
      <feColorMatrix type="matrix" values="0 0 0 0 0 0 0 0 0 0 0 0 0 0 0 0 0 0 0.25 0" />
      <feBlend mode="normal" in2="BackgroundImageFix" result="effect1_dropShadow_179525_1180" />
      <feBlend mode="normal" in="SourceGraphic" in2="effect1_dropShadow_179525_1180" result="shape" />
    </filter>
    <linearGradient id="paint0_linear_179525_1180" x1="7.49999" y1="7" x2="250" y2="250"
      gradientUnits="userSpaceOnUse">
      <stop stop-color="#FEFFE9" />
      <stop offset="1" stop-color="#D3FFCF" />
    </linearGradient>
    <linearGradient id="paint1_linear_179525_1180" x1="75" y1="73.5" x2="207.5" y2="215"
      gradientUnits="userSpaceOnUse">
      <stop offset="0.221154" stop-color="#1890FF" />
      <stop offset="1" stop-color="#0E5699" />
    </linearGradient>
  </defs>
</svg>
