<svg width="24" height="24" viewBox="0 0 24 24" fill="none" xmlns="http://www.w3.org/2000/svg">
  <path
    d="M22.1548 6.34206L10.609 17.7831C10.3172 18.0723 9.84397 18.0723 9.55211 17.7831C9.52691 17.7581 9.50388 17.7318 9.48303 17.7044C9.45565 17.6841 9.42923 17.6613 9.40415 17.6365L1.84519 10.146C1.76673 10.0683 1.76615 9.94164 1.8439 9.86318C1.88146 9.82528 1.93261 9.80396 1.98596 9.80396H3.53119C3.58392 9.80396 3.63451 9.82478 3.67196 9.86189L10.0802 16.2118L20.328 6.05793C20.3655 6.02082 20.4161 6 20.4688 6H22.014C22.1245 6 22.214 6.08954 22.214 6.2C22.214 6.25336 22.1927 6.30451 22.1548 6.34206Z"
    fill="#73d13d" />
</svg>
